<svg width="1600" height="1100" viewBox="0 0 1600 1100" fill="none" xmlns="http://www.w3.org/2000/svg">
  <rect width="1600" height="1100" fill="#F3ECDC"/>
  <rect y="720" width="1600" height="380" fill="#CBB293"/>
  <path d="M0 700L180 500L360 620L520 420L690 600L870 360L1080 620L1270 470L1600 760V1100H0V700Z" fill="#5A3926"/>
  <path d="M190 810L460 590L740 810H190Z" fill="#2A1A13"/>
  <rect x="270" y="810" width="380" height="180" fill="#8B613D"/>
  <rect x="320" y="870" width="88" height="64" fill="#F2F1DD" opacity="0.55"/>
  <rect x="445" y="870" width="88" height="64" fill="#F2F1DD" opacity="0.55"/>
  <rect x="565" y="850" width="60" height="140" fill="#3B2418"/>
  <path d="M1120 850C1030 720 1015 610 1040 500C1088 296 1235 200 1338 212C1418 221 1501 313 1470 460C1440 605 1320 712 1250 788L1120 850Z" fill="#6C8B5B"/>
</svg>
